<?xml version="1.0" standalone="no"?><!DOCTYPE svg PUBLIC "-//W3C//DTD SVG 1.1//EN" "http://www.w3.org/Graphics/SVG/1.1/DTD/svg11.dtd"><svg t="1634288939543" class="icon" viewBox="0 0 1039 1024" version="1.1" xmlns="http://www.w3.org/2000/svg" p-id="10924" xmlns:xlink="http://www.w3.org/1999/xlink" width="202.9296875" height="200"><defs><style type="text/css"></style></defs><path d="M966.854898 71.423345a244.104062 244.104062 0 0 0-416.630999 172.226192v180.446535a63.958272 63.958272 0 0 0 63.958272 63.958272l179.945294-1.102729A243.402326 243.402326 0 0 0 966.854898 71.423345zM794.42821 567.049827l-180.446535-1.002481a33.883849 33.883849 0 0 0-34.084346 33.783601V776.067063a219.042043 219.042043 0 0 0 56.23917 148.667895 214.129888 214.129888 0 0 0 197.087716 65.862985 207.413267 207.413267 0 0 0 81.301188-33.282361 213.528399 213.528399 0 0 0-120.29769-390.265755z" fill="#F4436C" p-id="10925"></path><path d="M794.829202 1023.980552a244.605303 244.605303 0 0 1-180.446535-78.794987 248.815722 248.815722 0 0 1-64.158768-169.118502V599.931195a63.858024 63.858024 0 0 1 63.958272-63.958271l180.446535 1.00248A243.602822 243.602822 0 0 1 931.567576 982.578097a236.38496 236.38496 0 0 1-93.130462 38.094268 248.113985 248.113985 0 0 1-43.607912 3.308187zM416.693464 71.423345a244.605303 244.605303 0 0 0-345.154122 0 243.20183 243.20183 0 0 0 0 344.552633 242.800837 242.800837 0 0 0 172.226193 71.176133l180.446534 1.102729a63.958272 63.958272 0 0 0 63.858024-63.958272v-180.446534a241.698108 241.698108 0 0 0-71.376629-172.426689zM244.066279 567.049827a213.528399 213.528399 0 0 0-120.29769 390.265755 207.413267 207.413267 0 0 0 81.301189 33.282361 214.129888 214.129888 0 0 0 196.686723-65.862985 219.042043 219.042043 0 0 0 56.339418-148.667895V599.830947a33.783601 33.783601 0 0 0-33.984098-33.783601l-180.446534 1.002481z" fill="#F4436C" p-id="10926"></path><path d="M243.665287 1023.980552a246.510016 246.510016 0 0 1-43.607913-3.809427 236.785953 236.785953 0 0 1-93.23071-38.094268 243.602822 243.602822 0 0 1 137.139367-445.101453l180.446534-1.00248a63.858024 63.858024 0 0 1 63.858024 63.958271V776.067063a248.314481 248.314481 0 0 1-64.158768 169.118502 244.404806 244.404806 0 0 1-180.446534 78.794987z" fill="#F4436C" p-id="10927"></path></svg>